<?xml version="1.0" encoding="UTF-8" standalone="no"?>
<!-- Created with Inkscape (http://www.inkscape.org/) -->

<svg
   xmlns:dc="http://purl.org/dc/elements/1.1/"
   xmlns:cc="http://creativecommons.org/ns#"
   xmlns:rdf="http://www.w3.org/1999/02/22-rdf-syntax-ns#"
   xmlns:svg="http://www.w3.org/2000/svg"
   xmlns="http://www.w3.org/2000/svg"
   xmlns:sodipodi="http://sodipodi.sourceforge.net/DTD/sodipodi-0.dtd"
   xmlns:inkscape="http://www.inkscape.org/namespaces/inkscape"
   width="52"
   height="42"
   viewBox="0 0 51.999997 41.999999"
   id="svg2"
   version="1.1"
   inkscape:version="0.91 r"
   sodipodi:docname="lo-fullscreen-prod2.svg">
  <defs
     id="defs4" />
  <sodipodi:namedview
     id="base"
     pagecolor="#000000"
     bordercolor="#666666"
     borderopacity="1.0"
     inkscape:pageopacity="0"
     inkscape:pageshadow="2"
     inkscape:zoom="5.6568542"
     inkscape:cx="15.179566"
     inkscape:cy="19.585814"
     inkscape:document-units="px"
     inkscape:current-layer="svg2"
     showgrid="false"
     units="mm"
     inkscape:window-width="1680"
     inkscape:window-height="1026"
     inkscape:window-x="0"
     inkscape:window-y="24"
     inkscape:window-maximized="1"
     showborder="false"
     inkscape:snap-bbox="true"
     inkscape:bbox-nodes="true"
     fit-margin-top="1"
     fit-margin-left="1"
     fit-margin-right="1"
     fit-margin-bottom="1"
     inkscape:snap-bbox-midpoints="true"
     inkscape:object-paths="false"
     inkscape:snap-intersection-paths="true"
     inkscape:object-nodes="true"
     inkscape:snap-midpoints="false"
     inkscape:snap-smooth-nodes="true"
     showguides="false"
     inkscape:guide-bbox="true"
     inkscape:snap-center="true"
     inkscape:snap-bbox-edge-midpoints="false">
    <inkscape:grid
       type="xygrid"
       id="grid4136"
       originx="0.99999994"
       originy="0.99999998" />
    <sodipodi:guide
       position="25.999998,5.9999999"
       orientation="1,0"
       id="guide4844" />
    <sodipodi:guide
       position="36.999998,14"
       orientation="0,1"
       id="guide4960" />
    <sodipodi:guide
       position="36.999998,14"
       orientation="1,0"
       id="guide4962" />
    <sodipodi:guide
       position="7.9999995,33.999999"
       orientation="1,0"
       id="guide5679" />
    <sodipodi:guide
       position="9.9999994,33.999999"
       orientation="0,1"
       id="guide5681" />
    <sodipodi:guide
       position="41.999998,7.9999998"
       orientation="0,1"
       id="guide5702" />
    <sodipodi:guide
       position="43.999997,8.9999998"
       orientation="1,0"
       id="guide5704" />
  </sodipodi:namedview>
  <metadata
     id="metadata7">
    <rdf:RDF>
      <cc:Work
         rdf:about="">
        <dc:format>image/svg+xml</dc:format>
        <dc:type
           rdf:resource="http://purl.org/dc/dcmitype/StillImage" />
        <dc:title></dc:title>
      </cc:Work>
    </rdf:RDF>
  </metadata>
  <path
     inkscape:connector-curvature="0"
     id="rect4157"
     d="m 8.4999981,1 c -4.155,0 -7.50000001,3.345 -7.50000001,7.5 l 0,25 c 0,4.155 3.34500001,7.5 7.50000001,7.5 l 34.9999999,0 c 4.155,0 7.5,-3.345 7.5,-7.5 l 0,-25 c 0,-4.155 -3.345,-7.5 -7.5,-7.5 L 8.4999981,1 Z m 0,3 34.9999999,0 c 2.493,0 4.5,2.007 4.5,4.5 l 0,25 c 0,2.493 -2.007,4.5 -4.5,4.5 L 8.4999981,38 c -2.493,0 -4.5,-2.007 -4.5,-4.5 l 0,-25 c 0,-2.493 2.007,-4.5 4.5,-4.5 z"
     style="opacity:0.5;fill:#ffffff;fill-opacity:1;stroke:none;stroke-width:150;stroke-linecap:round;stroke-linejoin:round;stroke-miterlimit:4;stroke-dasharray:none;stroke-opacity:1" />
  <path
     style="opacity:0.85;fill:#ffffff;fill-opacity:1;stroke:none;stroke-width:2;stroke-linecap:square;stroke-linejoin:round;stroke-miterlimit:4;stroke-dasharray:none;stroke-opacity:1"
     clip-path="none"
     d="M 10 8 C 8.892 8 8 8.892 8 10 L 8 18 L 18 8 L 10 8 z M 44 24 L 34 34 L 42 34 C 43.108 34 44 33.108 44 32 L 44 24 z "
     transform="translate(-1.9073486e-6,0)"
     id="rect5706" />
</svg>
