<?xml version="1.0" encoding="UTF-8" standalone="no"?>
<!-- Created with Inkscape (http://www.inkscape.org/) -->

<svg
   xmlns:dc="http://purl.org/dc/elements/1.1/"
   xmlns:cc="http://creativecommons.org/ns#"
   xmlns:rdf="http://www.w3.org/1999/02/22-rdf-syntax-ns#"
   xmlns:svg="http://www.w3.org/2000/svg"
   xmlns="http://www.w3.org/2000/svg"
   xmlns:sodipodi="http://sodipodi.sourceforge.net/DTD/sodipodi-0.dtd"
   xmlns:inkscape="http://www.inkscape.org/namespaces/inkscape"
   width="52"
   height="42"
   viewBox="0 0 51.999997 41.999999"
   id="svg2"
   version="1.1"
   inkscape:version="0.91 r"
   sodipodi:docname="lo-prev-episode-prod.svg">
  <defs
     id="defs4" />
  <sodipodi:namedview
     id="base"
     pagecolor="#000000"
     bordercolor="#666666"
     borderopacity="1.0"
     inkscape:pageopacity="0"
     inkscape:pageshadow="2"
     inkscape:zoom="8"
     inkscape:cx="6.3968773"
     inkscape:cy="19.390796"
     inkscape:document-units="px"
     inkscape:current-layer="svg2"
     showgrid="true"
     units="mm"
     inkscape:window-width="1680"
     inkscape:window-height="1026"
     inkscape:window-x="0"
     inkscape:window-y="24"
     inkscape:window-maximized="1"
     showborder="false"
     inkscape:snap-bbox="true"
     inkscape:bbox-nodes="true"
     fit-margin-top="1"
     fit-margin-left="1"
     fit-margin-right="1"
     fit-margin-bottom="1"
     inkscape:snap-bbox-midpoints="true"
     inkscape:object-paths="false"
     inkscape:snap-intersection-paths="true"
     inkscape:object-nodes="true"
     inkscape:snap-midpoints="false"
     inkscape:snap-smooth-nodes="true"
     showguides="true"
     inkscape:guide-bbox="true">
    <inkscape:grid
       type="xygrid"
       id="grid4136"
       originx="0.99999994"
       originy="0.99999998" />
    <sodipodi:guide
       position="25.999998,5.9999999"
       orientation="1,0"
       id="guide4844" />
  </sodipodi:namedview>
  <metadata
     id="metadata7">
    <rdf:RDF>
      <cc:Work
         rdf:about="">
        <dc:format>image/svg+xml</dc:format>
        <dc:type
           rdf:resource="http://purl.org/dc/dcmitype/StillImage" />
        <dc:title></dc:title>
      </cc:Work>
    </rdf:RDF>
  </metadata>
  <path
     inkscape:connector-curvature="0"
     id="rect4157"
     d="m 8.4999981,1 c -4.155,0 -7.50000001,3.345 -7.50000001,7.5 l 0,25 c 0,4.155 3.34500001,7.5 7.50000001,7.5 l 34.9999999,0 c 4.155,0 7.5,-3.345 7.5,-7.5 l 0,-25 c 0,-4.155 -3.345,-7.5 -7.5,-7.5 L 8.4999981,1 Z m 0,3 34.9999999,0 c 2.493,0 4.5,2.007 4.5,4.5 l 0,25 c 0,2.493 -2.007,4.5 -4.5,4.5 L 8.4999981,38 c -2.493,0 -4.5,-2.007 -4.5,-4.5 l 0,-25 c 0,-2.493 2.007,-4.5 4.5,-4.5 z"
     style="opacity:0.5;fill:#ffffff;fill-opacity:1;stroke:none;stroke-width:150;stroke-linecap:round;stroke-linejoin:round;stroke-miterlimit:4;stroke-dasharray:none;stroke-opacity:1" />
  <path
     style="color:#000000;font-style:normal;font-variant:normal;font-weight:normal;font-stretch:normal;font-size:medium;line-height:normal;font-family:sans-serif;text-indent:0;text-align:start;text-decoration:none;text-decoration-line:none;text-decoration-style:solid;text-decoration-color:#000000;letter-spacing:normal;word-spacing:normal;text-transform:none;direction:ltr;block-progression:tb;writing-mode:lr-tb;baseline-shift:baseline;text-anchor:start;white-space:normal;clip-rule:nonzero;display:inline;overflow:visible;visibility:visible;opacity:0.85;isolation:auto;mix-blend-mode:normal;color-interpolation:sRGB;color-interpolation-filters:linearRGB;solid-color:#000000;solid-opacity:1;fill:#ffffff;fill-opacity:1;fill-rule:evenodd;stroke:none;stroke-width:3;stroke-linecap:round;stroke-linejoin:miter;stroke-miterlimit:4;stroke-dasharray:none;stroke-dashoffset:0;stroke-opacity:1;color-rendering:auto;image-rendering:auto;shape-rendering:auto;text-rendering:auto;enable-background:accumulate"
     d="m 26.015623,9.484375 a 1.50015,1.50015 0 0 1 1.044922,2.576172 L 18.121092,21 l 8.939453,8.939453 a 1.50015,1.50015 0 1 1 -2.121094,2.121094 L 13.878904,21 24.939451,9.9394531 A 1.50015,1.50015 0 0 1 26.015623,9.484375 Z M 33.499998,18 a 3,3 0 0 1 3,3 3,3 0 0 1 -3,3 3,3 0 0 1 -3,-3 3,3 0 0 1 3,-3 z"
     id="path4818"
     inkscape:connector-curvature="0" />
</svg>
