<?xml version="1.0" encoding="UTF-8" standalone="no"?>
<!-- Created with Inkscape (http://www.inkscape.org/) -->

<svg
   xmlns:dc="http://purl.org/dc/elements/1.1/"
   xmlns:cc="http://creativecommons.org/ns#"
   xmlns:rdf="http://www.w3.org/1999/02/22-rdf-syntax-ns#"
   xmlns:svg="http://www.w3.org/2000/svg"
   xmlns="http://www.w3.org/2000/svg"
   xmlns:sodipodi="http://sodipodi.sourceforge.net/DTD/sodipodi-0.dtd"
   xmlns:inkscape="http://www.inkscape.org/namespaces/inkscape"
   width="52"
   height="42"
   viewBox="0 0 51.999997 41.999999"
   id="svg2"
   version="1.1"
   inkscape:version="0.91 r"
   sodipodi:docname="lo-prefs-prod.svg">
  <defs
     id="defs4" />
  <sodipodi:namedview
     id="base"
     pagecolor="#000000"
     bordercolor="#666666"
     borderopacity="1.0"
     inkscape:pageopacity="0"
     inkscape:pageshadow="2"
     inkscape:zoom="4"
     inkscape:cx="37.422507"
     inkscape:cy="38.206966"
     inkscape:document-units="px"
     inkscape:current-layer="svg2"
     showgrid="false"
     units="mm"
     inkscape:window-width="1680"
     inkscape:window-height="1026"
     inkscape:window-x="0"
     inkscape:window-y="24"
     inkscape:window-maximized="1"
     showborder="false"
     inkscape:snap-bbox="true"
     inkscape:bbox-nodes="true"
     fit-margin-top="1"
     fit-margin-left="1"
     fit-margin-right="1"
     fit-margin-bottom="1"
     inkscape:snap-bbox-midpoints="true">
    <inkscape:grid
       type="xygrid"
       id="grid4136"
       originx="0.99999994"
       originy="0.99999998" />
  </sodipodi:namedview>
  <metadata
     id="metadata7">
    <rdf:RDF>
      <cc:Work
         rdf:about="">
        <dc:format>image/svg+xml</dc:format>
        <dc:type
           rdf:resource="http://purl.org/dc/dcmitype/StillImage" />
        <dc:title></dc:title>
      </cc:Work>
    </rdf:RDF>
  </metadata>
  <path
     inkscape:connector-curvature="0"
     id="rect4157"
     d="m 8.4999981,1 c -4.155,0 -7.50000001,3.345 -7.50000001,7.5 l 0,25 c 0,4.155 3.34500001,7.5 7.50000001,7.5 l 34.9999999,0 c 4.155,0 7.5,-3.345 7.5,-7.5 l 0,-25 c 0,-4.155 -3.345,-7.5 -7.5,-7.5 L 8.4999981,1 Z m 0,3 34.9999999,0 c 2.493,0 4.5,2.007 4.5,4.5 l 0,25 c 0,2.493 -2.007,4.5 -4.5,4.5 L 8.4999981,38 c -2.493,0 -4.5,-2.007 -4.5,-4.5 l 0,-25 c 0,-2.493 2.007,-4.5 4.5,-4.5 z"
     style="opacity:0.5;fill:#ffffff;fill-opacity:1;stroke:none;stroke-width:150;stroke-linecap:round;stroke-linejoin:round;stroke-miterlimit:4;stroke-dasharray:none;stroke-opacity:1" />
  <path
     style="color:#000000;font-style:normal;font-variant:normal;font-weight:normal;font-stretch:normal;font-size:medium;line-height:normal;font-family:sans-serif;text-indent:0;text-align:start;text-decoration:none;text-decoration-line:none;text-decoration-style:solid;text-decoration-color:#000000;letter-spacing:normal;word-spacing:normal;text-transform:none;direction:ltr;block-progression:tb;writing-mode:lr-tb;baseline-shift:baseline;text-anchor:start;white-space:normal;clip-rule:nonzero;display:inline;overflow:visible;visibility:visible;opacity:0.85;isolation:auto;mix-blend-mode:normal;color-interpolation:sRGB;color-interpolation-filters:linearRGB;solid-color:#000000;solid-opacity:1;fill:#ffffff;fill-opacity:1;fill-rule:evenodd;stroke:none;stroke-width:4;stroke-linecap:butt;stroke-linejoin:miter;stroke-miterlimit:4;stroke-dasharray:none;stroke-dashoffset:0;stroke-opacity:1;color-rendering:auto;image-rendering:auto;shape-rendering:auto;text-rendering:auto;enable-background:accumulate"
     d="M 24 9 L 24 12.234375 A 9 9 0 0 0 21.21875 13.388672 L 18.929688 11.099609 L 16.099609 13.929688 L 18.382812 16.212891 A 9 9 0 0 0 17.236328 19 L 14 19 L 14 23 L 17.234375 23 A 9 9 0 0 0 18.388672 25.78125 L 16.099609 28.070312 L 18.929688 30.900391 L 21.212891 28.617188 A 9 9 0 0 0 24 29.763672 L 24 33 L 28 33 L 28 29.765625 A 9 9 0 0 0 30.78125 28.611328 L 33.070312 30.900391 L 35.900391 28.070312 L 33.617188 25.787109 A 9 9 0 0 0 34.763672 23 L 38 23 L 38 19 L 34.765625 19 A 9 9 0 0 0 33.611328 16.21875 L 35.900391 13.929688 L 33.070312 11.099609 L 30.787109 13.382812 A 9 9 0 0 0 28 12.236328 L 28 9 L 24 9 z M 26.914062 12.056641 C 26.977432 12.063472 27.040305 12.071902 27.103516 12.080078 A 9 9 0 0 0 26.914062 12.056641 z M 26 15 A 6 6 0 0 1 32 21 A 6 6 0 0 1 26 27 A 6 6 0 0 1 20 21 A 6 6 0 0 1 26 15 z M 17.080078 19.896484 A 9 9 0 0 0 17.056641 20.085938 C 17.063472 20.022568 17.071902 19.959695 17.080078 19.896484 z M 34.943359 21.914062 C 34.936528 21.977432 34.928098 22.040305 34.919922 22.103516 A 9 9 0 0 0 34.943359 21.914062 z M 24.896484 29.919922 A 9 9 0 0 0 25.085938 29.943359 C 25.022568 29.936528 24.959695 29.928098 24.896484 29.919922 z "
     id="path4363"
     transform="translate(-1.9073486e-6,0)" />
</svg>
