<?xml version="1.0" encoding="UTF-8" standalone="no"?>
<!-- Created with Inkscape (http://www.inkscape.org/) -->

<svg
   xmlns:dc="http://purl.org/dc/elements/1.1/"
   xmlns:cc="http://creativecommons.org/ns#"
   xmlns:rdf="http://www.w3.org/1999/02/22-rdf-syntax-ns#"
   xmlns:svg="http://www.w3.org/2000/svg"
   xmlns="http://www.w3.org/2000/svg"
   xmlns:xlink="http://www.w3.org/1999/xlink"
   xmlns:sodipodi="http://sodipodi.sourceforge.net/DTD/sodipodi-0.dtd"
   xmlns:inkscape="http://www.inkscape.org/namespaces/inkscape"
   width="210mm"
   height="297mm"
   viewBox="0 0 744.09448819 1052.3622047"
   id="svg2"
   version="1.1"
   inkscape:version="0.91 r"
   sodipodi:docname="logo.svg">
  <defs
     id="defs4">
    <clipPath
       clipPathUnits="userSpaceOnUse"
       id="clipPath4238">
      <rect
         style="opacity:1;fill:#f3c1c1;fill-opacity:1;stroke:none;stroke-width:100;stroke-miterlimit:4;stroke-dasharray:none;stroke-opacity:1"
         id="rect4240"
         width="36.294643"
         height="15.625"
         x="255.89285"
         y="214.2372" />
    </clipPath>
    <clipPath
       clipPathUnits="userSpaceOnUse"
       id="clipPath4244">
      <rect
         style="opacity:1;fill:#f3c1c1;fill-opacity:1;stroke:none;stroke-width:100;stroke-miterlimit:4;stroke-dasharray:none;stroke-opacity:1"
         id="rect4246"
         width="39.964161"
         height="19.681265"
         x="257.52576"
         y="229.8622" />
    </clipPath>
    <clipPath
       clipPathUnits="userSpaceOnUse"
       id="clipPath4298">
      <rect
         style="opacity:1;fill:#ffffff;fill-opacity:1;stroke:none;stroke-width:1.92294443;stroke-miterlimit:4;stroke-dasharray:none;stroke-opacity:1"
         id="rect4300"
         width="44.945477"
         height="23.246136"
         x="257.60785"
         y="229.3783"
         ry="1.49998"
         rx="1.49998" />
    </clipPath>
  </defs>
  <sodipodi:namedview
     id="base"
     pagecolor="#ffffff"
     bordercolor="#666666"
     borderopacity="1.0"
     inkscape:pageopacity="0.0"
     inkscape:pageshadow="2"
     inkscape:zoom="7.9999999"
     inkscape:cx="288.34705"
     inkscape:cy="814.17934"
     inkscape:document-units="px"
     inkscape:current-layer="layer1"
     showgrid="true"
     inkscape:snap-bbox="true"
     inkscape:bbox-nodes="true"
     showguides="false"
     inkscape:guide-bbox="true"
     inkscape:snap-intersection-paths="false"
     inkscape:object-nodes="false"
     inkscape:object-paths="false"
     inkscape:snap-smooth-nodes="false"
     inkscape:snap-bbox-edge-midpoints="false"
     inkscape:snap-bbox-midpoints="false"
     inkscape:snap-object-midpoints="true"
     inkscape:snap-center="true"
     inkscape:snap-global="true"
     inkscape:window-width="1680"
     inkscape:window-height="1026"
     inkscape:window-x="0"
     inkscape:window-y="24"
     inkscape:window-maximized="1"
     inkscape:snap-nodes="false">
    <inkscape:grid
       type="xygrid"
       id="grid4136" />
    <sodipodi:guide
       position="272.5,822.50002"
       orientation="0,1"
       id="guide4174" />
    <sodipodi:guide
       position="272.5,822.50002"
       orientation="1,0"
       id="guide4176" />
    <sodipodi:guide
       position="263.51367,831.17081"
       orientation="1,0"
       id="guide4261" />
    <sodipodi:guide
       position="263.51309,831.18826"
       orientation="0,1"
       id="guide4263" />
    <sodipodi:guide
       position="266.98363,827.69124"
       orientation="0.70451034,0.70969373"
       id="guide4265" />
  </sodipodi:namedview>
  <metadata
     id="metadata7">
    <rdf:RDF>
      <cc:Work
         rdf:about="">
        <dc:format>image/svg+xml</dc:format>
        <dc:type
           rdf:resource="http://purl.org/dc/dcmitype/StillImage" />
        <dc:title />
      </cc:Work>
    </rdf:RDF>
  </metadata>
  <g
     inkscape:label="Layer 1"
     inkscape:groupmode="layer"
     id="layer1">
    <circle
       style="opacity:1;fill:#000000;fill-opacity:1;stroke:none;stroke-width:100;stroke-miterlimit:4;stroke-dasharray:none;stroke-opacity:1"
       id="path4140"
       cx="-229.8622"
       cy="272.50003"
       r="12.5"
       transform="matrix(0,-1,1,0,0,0)" />
    <rect
       style="opacity:1;fill:#ffffff;fill-opacity:1;stroke:none;stroke-width:100;stroke-miterlimit:4;stroke-dasharray:none;stroke-opacity:1"
       id="rect4142"
       width="25"
       height="2.5"
       x="-242.3622"
       y="271.25003"
       transform="matrix(0,-1,1,0,0,0)" />
    <circle
       r="16.170122"
       cy="229.8622"
       cx="272.5"
       id="circle4325"
       style="opacity:1;fill:none;fill-opacity:1;stroke:#000000;stroke-width:2.3599999;stroke-miterlimit:4;stroke-dasharray:none;stroke-opacity:1" />
    <path
       style="font-style:normal;font-variant:normal;font-weight:normal;font-stretch:normal;font-size:medium;line-height:125%;font-family:COCOGOOSE;-inkscape-font-specification:COCOGOOSE;letter-spacing:0px;word-spacing:0px;fill:#000000;fill-opacity:1;stroke:none;stroke-width:1px;stroke-linecap:butt;stroke-linejoin:miter;stroke-opacity:1"
       inkscape:connector-curvature="0"
       id="path4332"
       d="m 301.2067,218.01958 q 0.0168,-0.10114 0.10113,-0.21913 0.10114,-0.11799 0.23598,-0.21913 0.13485,-0.10113 0.28655,-0.1517 0.15171,-0.0674 0.28655,-0.0674 l 4.31512,0 q 0.28655,0 0.48882,0.18541 0.20227,0.16856 0.3034,0.30341 l 0.4214,0.96079 8.84935,22.82289 q 0.13485,0.33712 -0.0506,0.55625 -0.18542,0.20227 -0.64053,0.20227 l -4.83764,0 q -0.38769,0 -0.60682,-0.13485 -0.20227,-0.1517 -0.32026,-0.48882 -0.33712,-0.85965 -0.65738,-1.70245 -0.32026,-0.85965 -0.64052,-1.7193 l -8.95049,0 q -0.32026,0.85965 -0.65738,1.7193 -0.32026,0.8428 -0.64053,1.70245 -0.21912,0.62367 -0.85965,0.62367 l -4.97249,0 q -0.32026,0 -0.53939,-0.16856 -0.20227,-0.16856 -0.0674,-0.50568 l 9.15276,-23.6994 z m 3.06777,7.21433 q -0.32026,0.85965 -0.65738,1.85415 -0.32026,0.99449 -0.64052,2.00585 -0.32027,1.01135 -0.65738,2.00585 -0.32027,0.97764 -0.64053,1.83729 l 5.17476,0 -2.57895,-7.70314 z" />
    <path
       style="font-style:normal;font-variant:normal;font-weight:normal;font-stretch:normal;font-size:medium;line-height:125%;font-family:COCOGOOSE;-inkscape-font-specification:COCOGOOSE;letter-spacing:0px;word-spacing:0px;fill:#000000;fill-opacity:1;stroke:none;stroke-width:1px;stroke-linecap:butt;stroke-linejoin:miter;stroke-opacity:1"
       inkscape:connector-curvature="0"
       id="path4334"
       d="m 324.54009,232.39767 q 0,1.24733 0.33712,2.12384 0.35398,0.85965 0.91022,1.4159 0.5731,0.53938 1.31476,0.79222 0.75852,0.25284 1.5676,0.25284 0.8428,0 1.58446,-0.28655 0.75851,-0.3034 1.31476,-0.87651 0.5731,-0.58995 0.89336,-1.4496 0.33712,-0.85965 0.33712,-1.97214 l 0,-14.29381 q 0,-0.30341 0.20227,-0.52254 0.21913,-0.21912 0.5731,-0.21912 l 4.92192,0 q 0.38769,0 0.60682,0.23598 0.21912,0.21913 0.21912,0.50568 l 0,14.20953 q 0,2.94978 -0.8765,4.95563 -0.85965,2.00586 -2.32612,3.23634 -1.46646,1.21362 -3.40489,1.75301 -1.92157,0.52253 -4.04542,0.52253 -2.12384,0 -4.06227,-0.53939 -1.93843,-0.55624 -3.4049,-1.78672 -1.46646,-1.24734 -2.34297,-3.23634 Q 318,235.2126 318,232.31339 l 0,-14.20953 q 0,-0.28655 0.18542,-0.50568 0.20227,-0.23598 0.48882,-0.23598 l 5.05677,0 q 0.25284,0 0.52253,0.21912 0.28655,0.20227 0.28655,0.52254 l 0,14.29381 z" />
    <path
       style="font-style:normal;font-variant:normal;font-weight:normal;font-stretch:normal;font-size:medium;line-height:125%;font-family:COCOGOOSE;-inkscape-font-specification:COCOGOOSE;letter-spacing:0px;word-spacing:0px;fill:#000000;fill-opacity:1;stroke:none;stroke-width:1px;stroke-linecap:butt;stroke-linejoin:miter;stroke-opacity:1"
       inkscape:connector-curvature="0"
       id="path4336"
       d="m 344.25782,218.13757 q 0,-0.35398 0.18542,-0.55625 0.18541,-0.21912 0.55624,-0.21912 l 10.88892,0 q 1.73616,0 3.25319,0.65738 1.51703,0.64052 2.64637,1.75301 1.12935,1.11249 1.76987,2.61267 0.65738,1.48332 0.65738,3.16891 0,1.1462 -0.32026,2.19127 -0.3034,1.02821 -0.85965,1.93842 -0.55624,0.89337 -1.33162,1.63503 -0.75851,0.7248 -1.66873,1.24733 l 4.33197,8.15826 q 0.11799,0.23599 0.3034,0.55625 0.18542,0.32026 0.18542,0.55624 0,0.2697 -0.18542,0.4214 -0.16856,0.13485 -0.47196,0.13485 l -5.78158,0 q -0.28655,0 -0.52253,-0.16856 -0.21913,-0.16856 -0.28655,-0.45511 l -4.09599,-7.70315 -2.73065,0 0,7.60201 q 0,0.72481 -0.77537,0.72481 l -5.00621,0 q -0.33712,0 -0.53939,-0.16856 -0.20227,-0.18542 -0.20227,-0.55625 l 0,-23.53084 z m 13.19818,7.48402 q 0,-0.50568 -0.18542,-1.01135 -0.18541,-0.50568 -0.52253,-0.92708 -0.33712,-0.4214 -0.80909,-0.70795 -0.47196,-0.28655 -1.04506,-0.37083 -0.47197,-0.0337 -0.89336,-0.0506 -0.40455,-0.0337 -0.89337,-0.0337 l -2.32611,0 0,6.18612 3.10148,0 q 0.30341,0 0.53939,-0.0169 0.23599,-0.0169 0.52254,-0.0506 0.58995,-0.0674 1.06192,-0.33712 0.47196,-0.28655 0.79223,-0.69109 0.32026,-0.4214 0.48882,-0.92708 0.16856,-0.52253 0.16856,-1.06192 z" />
  </g>
  <g
     inkscape:groupmode="layer"
     id="layer2"
     inkscape:label="Layer 2">
    <circle
       r="12.5"
       cy="244.3075"
       cx="177.1994"
       id="circle4145"
       style="opacity:1;fill:#000000;fill-opacity:1;stroke:none;stroke-width:100;stroke-miterlimit:4;stroke-dasharray:none;stroke-opacity:1" />
    <ellipse
       style="opacity:1;fill:#989898;fill-opacity:1;stroke:none;stroke-width:100;stroke-miterlimit:4;stroke-dasharray:none;stroke-opacity:1"
       id="circle4148"
       cx="177.25523"
       cy="260.50769"
       rx="9.5"
       ry="11.499993" />
    <path
       style="opacity:1;fill:#4de3c1;fill-opacity:1;stroke:none;stroke-width:100;stroke-miterlimit:4;stroke-dasharray:none;stroke-opacity:1"
       d="m 195.46781,263.34876 c 0,6.35127 -4.2533,11.49999 -9.5,11.49999 -5.2467,0 -5.43345,-6.62128 -9.5,-11.49999 -4.97768,-5.97181 2.38296,-12.56828 9.5,-11.5 5.31186,0.79732 9.5,5.14873 9.5,11.5 z"
       id="ellipse4154"
       inkscape:connector-curvature="0"
       sodipodi:nodetypes="sssss" />
    <path
       inkscape:connector-curvature="0"
       id="path4167"
       d="m 185.96781,250.84876 a 12.5,12.5 0 0 0 -8.98633,3.83008 c 2.13893,-2.08807 5.58304,-3.34092 8.98633,-2.83008 5.31186,0.79732 9.5,5.14873 9.5,11.5 0,6.35127 -4.2533,11.5 -9.5,11.5 -5.2467,0 -5.43345,-6.62129 -9.5,-11.5 -2.13525,-2.5617 -1.99051,-5.23383 -0.57812,-7.3711 a 12.5,12.5 0 0 0 -2.42188,7.3711 12.5,12.5 0 0 0 12.5,12.5 12.5,12.5 0 0 0 12.5,-12.5 12.5,12.5 0 0 0 -12.5,-12.5 z m -9.53125,4.41601 a 12.5,12.5 0 0 0 -0.0879,0.10938 c 0.0296,-0.0363 0.0575,-0.0734 0.0879,-0.10938 z"
       style="opacity:1;fill:#000000;fill-opacity:1;stroke:none;stroke-width:100;stroke-miterlimit:4;stroke-dasharray:none;stroke-opacity:1" />
    <path
       style="color:#000000;font-style:normal;font-variant:normal;font-weight:normal;font-stretch:normal;font-size:medium;line-height:normal;font-family:sans-serif;text-indent:0;text-align:start;text-decoration:none;text-decoration-line:none;text-decoration-style:solid;text-decoration-color:#000000;letter-spacing:normal;word-spacing:normal;text-transform:none;direction:ltr;block-progression:tb;writing-mode:lr-tb;baseline-shift:baseline;text-anchor:start;white-space:normal;clip-rule:nonzero;display:inline;overflow:visible;visibility:visible;opacity:1;isolation:auto;mix-blend-mode:normal;color-interpolation:sRGB;color-interpolation-filters:linearRGB;solid-color:#000000;solid-opacity:1;fill:#ffffff;fill-opacity:1;fill-rule:nonzero;stroke:none;stroke-width:3;stroke-linecap:butt;stroke-linejoin:miter;stroke-miterlimit:4;stroke-dasharray:none;stroke-dashoffset:0;stroke-opacity:1;color-rendering:auto;image-rendering:auto;shape-rendering:auto;text-rendering:auto;enable-background:accumulate"
       d="m 285.81002,233.14526 c -0.78481,1.77887 -1.25879,1.17049 -2.74197,3.39274 -2.52715,3.78642 -7.20144,5.07552 -10.75868,4.14712 -5.00108,-1.30523 -8.16133,-4.64927 -7.35894,-10.16066 0.0984,-1.68222 -0.47085,-3.65494 0.37189,-4.86409 l 2.70117,-3.875 -5e-5,-2.1e-4 -8.63867,3.12304 -0.22461,0.70508 c -0.42615,1.33909 -0.66016,2.76907 -0.66016,4.25 0,7.71422 6.2389,14.07031 13.95312,14.07031 l 0.002,0 c 2.80329,-0.004 5.30807,-0.13847 7.60956,-1.70142 0.80796,-0.54869 1.79637,-1.93106 2.48029,-2.63842 z"
       clip-path="url(#clipPath4298)"
       id="path4271"
       inkscape:connector-curvature="0"
       sodipodi:nodetypes="cssccccccsscscc"
       transform="matrix(0,-1,1,0,42.637835,502.36219)" />
    <path
       inkscape:transform-center-y="1.7568279"
       inkscape:transform-center-x="-4.353403"
       inkscape:connector-curvature="0"
       id="path4234"
       d="m 285.0009,229.86219 c -0.005,-3.39095 -1.38734,-6.63439 -3.83007,-8.98633 2.2912,2.23268 3.56462,5.95267 3.02626,9.35172 -0.90779,5.7317 -5.21414,10.22589 -11.78458,9.84172 -2.02353,-0.11832 -3.6282,-0.86219 -4.97299,-1.79946 l 1.26646,3.50251 c 1.19679,0.38086 2.47196,0.58984 3.79492,0.58984 6.90357,0 12.5,-5.59644 12.5,-12.5 z"
       style="opacity:1;fill:#000000;fill-opacity:1;stroke:none;stroke-width:100;stroke-miterlimit:4;stroke-dasharray:none;stroke-opacity:1"
       sodipodi:nodetypes="ccssccsc" />
    <rect
       style="opacity:1;fill:#ffffff;fill-opacity:1;stroke:none;stroke-width:100;stroke-miterlimit:4;stroke-dasharray:none;stroke-opacity:1"
       id="rect4248"
       width="8"
       height="17.142862"
       x="-233.8622"
       y="263.92862"
       ry="4"
       rx="4"
       transform="matrix(0,-1,1,0,0,0)" />
    <rect
       y="265.53601"
       x="-232.42284"
       height="13.944497"
       width="5.0606384"
       id="rect4250"
       style="opacity:1;fill:#000000;fill-opacity:1;stroke:none;stroke-width:100;stroke-miterlimit:4;stroke-dasharray:none;stroke-opacity:1"
       ry="2.5303192"
       rx="2.5303192"
       transform="matrix(0,-1,1,0,0,0)" />
    <path
       clip-path="url(#clipPath4238)"
       inkscape:transform-center-y="-4.353412"
       inkscape:transform-center-x="-1.7568371"
       inkscape:connector-curvature="0"
       style="opacity:1;fill:none;fill-opacity:1;stroke:#ffffff;stroke-width:3;stroke-linejoin:miter;stroke-miterlimit:4;stroke-dasharray:none;stroke-opacity:1"
       d="m 272.5,217.36133 c -3.39095,0.005 -6.63439,1.38734 -8.98633,3.83008 2.13893,-2.08807 5.58304,-3.34092 8.98633,-2.83008 5.31186,0.79732 9.5,5.14873 9.5,11.5 0,1.33177 -0.19705,2.60528 -0.54102,3.79492 l 2.95118,0 C 284.79102,232.45947 285,231.1843 285,229.86133 c 0,-6.90356 -5.59644,-12.5 -12.5,-12.5 z"
       id="path4255"
       transform="translate(-88.890255,19.077522)" />
    <path
       clip-path="url(#clipPath4238)"
       inkscape:transform-center-y="0.33561881"
       inkscape:transform-center-x="6.9306015"
       inkscape:connector-curvature="0"
       style="opacity:1;fill:none;fill-opacity:1;stroke:#ffffff;stroke-width:3;stroke-linejoin:miter;stroke-miterlimit:4;stroke-dasharray:none;stroke-opacity:1"
       d="m 271.61713,214.1103 c -3.39095,0.005 -9.26282,2.43577 -11.61476,4.87851 2.13893,-2.08807 7.34429,-3.38257 10.94111,-2.83843 8.70599,1.31706 10.73024,9.28694 10.93659,12.11859 0.0968,1.32825 2.67054,5.48503 2.32657,6.67467 l 0.20352,-1.28739 C 284.79102,232.45947 285,231.1843 285,229.86133 c 0,-6.90356 -6.47931,-15.75103 -13.38287,-15.75103 z"
       id="path4259"
       transform="matrix(-0.61186187,-0.79096462,0.79096462,-0.61186187,186.03836,586.30277)"
       sodipodi:nodetypes="ccssccsc" />
    <path
       style="opacity:1;fill:#ffffff;fill-opacity:1;fill-rule:evenodd;stroke:none;stroke-width:1px;stroke-linecap:butt;stroke-linejoin:miter;stroke-opacity:1"
       d="m 165.33726,230.36934 3.09118,3.06861 c 1.14055,-3.7337 4.764,-5.09399 8.21662,-3.72055 -3.57846,-3.37861 -8.65453,-0.18708 -11.28978,0.6344 z"
       id="path4267"
       inkscape:connector-curvature="0"
       sodipodi:nodetypes="ccccc"
       inkscape:transform-center-x="6.6080429"
       inkscape:transform-center-y="-7.462997" />
    <path
       inkscape:transform-center-y="7.462993"
       inkscape:transform-center-x="-6.6080471"
       sodipodi:nodetypes="ccccc"
       inkscape:connector-curvature="0"
       id="path4269"
       d="m 185.52759,266.96284 -3.4973,-3.47176 c 1.53948,1.52824 1.07836,3.7509 -1.31395,4.54355 l 4.79323,-1.05425 z"
       style="opacity:1;fill:#ffffff;fill-opacity:1;fill-rule:evenodd;stroke:none;stroke-width:1px;stroke-linecap:butt;stroke-linejoin:miter;stroke-opacity:1" />
    <use
       x="0"
       y="0"
       xlink:href="#path4271"
       id="use4308"
       inkscape:transform-center-x="-0.3450048"
       inkscape:transform-center-y="-3.8604216"
       width="100%"
       height="100%"
       transform="matrix(-1,0,0,-1,545.00003,459.72436)" />
    <use
       x="0"
       y="0"
       xlink:href="#path4234"
       inkscape:transform-center-x="-1.7568498"
       inkscape:transform-center-y="-3.7202016"
       id="use4310"
       width="100%"
       height="100%"
       transform="matrix(-1,0,0,-1,545.00003,459.72436)" />
  </g>
</svg>
