<?xml version="1.0" encoding="UTF-8" standalone="no"?>
<!-- Created with Inkscape (http://www.inkscape.org/) -->

<svg
   xmlns:dc="http://purl.org/dc/elements/1.1/"
   xmlns:cc="http://creativecommons.org/ns#"
   xmlns:rdf="http://www.w3.org/1999/02/22-rdf-syntax-ns#"
   xmlns:svg="http://www.w3.org/2000/svg"
   xmlns="http://www.w3.org/2000/svg"
   xmlns:sodipodi="http://sodipodi.sourceforge.net/DTD/sodipodi-0.dtd"
   xmlns:inkscape="http://www.inkscape.org/namespaces/inkscape"
   width="54.699219"
   height="54.701172"
   viewBox="0 0 54.699218 54.70117"
   id="svg2"
   version="1.1"
   inkscape:version="0.91 r"
   sodipodi:docname="logo-prod.svg">
  <defs
     id="defs4">
    <clipPath
       clipPathUnits="userSpaceOnUse"
       id="clipPath4238">
      <rect
         style="opacity:1;fill:#f3c1c1;fill-opacity:1;stroke:none;stroke-width:100;stroke-miterlimit:4;stroke-dasharray:none;stroke-opacity:1"
         id="rect4240"
         width="36.294643"
         height="15.625"
         x="255.89285"
         y="214.2372" />
    </clipPath>
    <clipPath
       clipPathUnits="userSpaceOnUse"
       id="clipPath4244">
      <rect
         style="opacity:1;fill:#f3c1c1;fill-opacity:1;stroke:none;stroke-width:100;stroke-miterlimit:4;stroke-dasharray:none;stroke-opacity:1"
         id="rect4246"
         width="39.964161"
         height="19.681265"
         x="257.52576"
         y="229.8622" />
    </clipPath>
    <clipPath
       clipPathUnits="userSpaceOnUse"
       id="clipPath4298">
      <rect
         style="opacity:1;fill:#ffffff;fill-opacity:1;stroke:none;stroke-width:1.92294443;stroke-miterlimit:4;stroke-dasharray:none;stroke-opacity:1"
         id="rect4300"
         width="44.945477"
         height="23.246136"
         x="257.60785"
         y="229.3783"
         ry="1.49998"
         rx="1.49998" />
    </clipPath>
  </defs>
  <sodipodi:namedview
     id="base"
     pagecolor="#ffffff"
     bordercolor="#666666"
     borderopacity="1.0"
     inkscape:pageopacity="0.0"
     inkscape:pageshadow="2"
     inkscape:zoom="5.0215629"
     inkscape:cx="43.496201"
     inkscape:cy="48.912599"
     inkscape:document-units="px"
     inkscape:current-layer="svg2"
     showgrid="false"
     inkscape:snap-bbox="true"
     inkscape:bbox-nodes="true"
     showguides="false"
     inkscape:guide-bbox="true"
     inkscape:snap-intersection-paths="false"
     inkscape:object-nodes="false"
     inkscape:object-paths="false"
     inkscape:snap-smooth-nodes="false"
     inkscape:snap-bbox-edge-midpoints="false"
     inkscape:snap-bbox-midpoints="false"
     inkscape:snap-object-midpoints="true"
     inkscape:snap-center="true"
     inkscape:snap-global="true"
     inkscape:window-width="1680"
     inkscape:window-height="1026"
     inkscape:window-x="0"
     inkscape:window-y="24"
     inkscape:window-maximized="1"
     inkscape:snap-nodes="false"
     fit-margin-top="10"
     fit-margin-left="10"
     fit-margin-right="10"
     fit-margin-bottom="10"
     units="px">
    <inkscape:grid
       type="xygrid"
       id="grid4136"
       originx="-245.15038"
       originy="-795.14929" />
    <sodipodi:guide
       position="27.349609,27.350683"
       orientation="0,1"
       id="guide4174" />
    <sodipodi:guide
       position="27.349609,27.350683"
       orientation="1,0"
       id="guide4176" />
    <sodipodi:guide
       position="18.36328,36.021472"
       orientation="1,0"
       id="guide4261" />
    <sodipodi:guide
       position="18.3627,36.038922"
       orientation="0,1"
       id="guide4263" />
    <sodipodi:guide
       position="21.83324,32.541902"
       orientation="0.70451034,0.70969373"
       id="guide4265" />
  </sodipodi:namedview>
  <metadata
     id="metadata7">
    <rdf:RDF>
      <cc:Work
         rdf:about="">
        <dc:format>image/svg+xml</dc:format>
        <dc:type
           rdf:resource="http://purl.org/dc/dcmitype/StillImage" />
        <dc:title></dc:title>
      </cc:Work>
    </rdf:RDF>
  </metadata>
  <path
     style="opacity:1;fill:#000000;fill-opacity:1;stroke:none;stroke-width:100;stroke-miterlimit:4;stroke-dasharray:none;stroke-opacity:1"
     d="M 27.349609,10 C 17.781379,10 10,17.781379 10,27.349609 c 0,9.56823 7.781379,17.351563 17.349609,17.351563 9.56823,0 17.34961,-7.783333 17.34961,-17.351563 C 44.699219,17.781379 36.917839,10 27.349609,10 Z m 0,2.361328 c 8.29279,0 14.990235,6.695491 14.990235,14.988281 0,8.29279 -6.697445,14.990235 -14.990235,14.990235 -8.29279,0 -14.990234,-6.697445 -14.990234,-14.990235 0,-8.29279 6.697444,-14.988281 14.990234,-14.988281 z m 0,2.488281 c -6.90357,0 -12.5,5.59644 -12.5,12.5 0.005,3.39095 1.387349,6.634388 3.830079,8.986329 -2.2912,-2.232681 -3.565704,-5.952513 -3.027344,-9.351563 0.90779,-5.7317 5.214716,-10.225967 11.785156,-9.841797 0.40546,0.0237 0.789009,0.0799 1.162109,0.150391 l 0,6.05664 3.322266,0 c 2.216,0 4,1.784 4,4 0,2.216 -1.784,4 -4,4 l -3.322266,0 0,3.611329 c 5.15833,0.49743 8.314616,-2.601172 9.572266,-7.419922 0.91706,-3.51382 -0.333642,-8.112587 -4.013672,-10.660157 -0.93437,-0.60434 -1.953389,-1.056598 -3.005859,-1.417968 -0.41348,-0.14197 -0.900853,-0.265076 -1.314453,-0.353516 -0.80368,-0.17186 -1.634972,-0.259766 -2.488282,-0.259766 z m 8.669922,3.513672 c 2.2912,2.23268 3.565704,5.954466 3.027344,9.353516 -0.90779,5.7317 -5.214716,10.224014 -11.785156,9.839844 -0.40539,-0.0237 -0.78907,-0.078 -1.16211,-0.148438 l 0,-6.058594 -3.322265,0 c -2.216,0 -4,-1.784 -4,-4 0,-2.216 1.784,-4 4,-4 l 3.322265,0 0,-3.609375 c -0.474,-0.0457 -0.936773,-0.07229 -1.376953,-0.05859 -4.35012,0.13573 -7.053232,3.102565 -8.195312,7.478515 -0.91706,3.51382 0.333642,8.112576 4.013672,10.660156 0.20267,0.13227 0.40892,0.259007 0.61914,0.378907 1.21004,0.69013 2.439365,1.108878 3.703125,1.392578 0.80129,0.17988 1.633678,0.257812 2.486328,0.257812 6.90357,0 12.5,-5.59644 12.5,-12.5 -0.005,-3.39095 -1.387348,-6.634388 -3.830078,-8.986328 z m -13.103515,6.486328 c -1.4018,0 -2.53125,1.12945 -2.53125,2.53125 0,1.40179 1.12945,2.529297 2.53125,2.529297 l 8.882812,0 c 1.4018,-2e-5 2.53125,-1.127507 2.53125,-2.529297 0,-1.4018 -1.12945,-2.53125 -2.53125,-2.53125 z"
     id="path4140"
     inkscape:connector-curvature="0"
     sodipodi:nodetypes="sssssssssssccscccsssccscscscssccssscccsccssccssscsss" />
</svg>
