<?xml version="1.0" encoding="UTF-8" standalone="no"?>
<!-- Created with Inkscape (http://www.inkscape.org/) -->

<svg
   xmlns:dc="http://purl.org/dc/elements/1.1/"
   xmlns:cc="http://creativecommons.org/ns#"
   xmlns:rdf="http://www.w3.org/1999/02/22-rdf-syntax-ns#"
   xmlns:svg="http://www.w3.org/2000/svg"
   xmlns="http://www.w3.org/2000/svg"
   xmlns:sodipodi="http://sodipodi.sourceforge.net/DTD/sodipodi-0.dtd"
   xmlns:inkscape="http://www.inkscape.org/namespaces/inkscape"
   width="129.70508"
   height="54.701172"
   viewBox="0 0 129.70508 54.70117"
   id="svg2"
   version="1.1"
   inkscape:version="0.91 r"
   sodipodi:docname="logo-prod-text.svg"
   inkscape:export-filename="/tmp/main-logo.png"
   inkscape:export-xdpi="822.65149"
   inkscape:export-ydpi="822.65149">
  <defs
     id="defs4">
    <clipPath
       clipPathUnits="userSpaceOnUse"
       id="clipPath4238">
      <rect
         style="opacity:1;fill:#f3c1c1;fill-opacity:1;stroke:none;stroke-width:100;stroke-miterlimit:4;stroke-dasharray:none;stroke-opacity:1"
         id="rect4240"
         width="36.294643"
         height="15.625"
         x="255.89285"
         y="214.2372" />
    </clipPath>
    <clipPath
       clipPathUnits="userSpaceOnUse"
       id="clipPath4244">
      <rect
         style="opacity:1;fill:#f3c1c1;fill-opacity:1;stroke:none;stroke-width:100;stroke-miterlimit:4;stroke-dasharray:none;stroke-opacity:1"
         id="rect4246"
         width="39.964161"
         height="19.681265"
         x="257.52576"
         y="229.8622" />
    </clipPath>
    <clipPath
       clipPathUnits="userSpaceOnUse"
       id="clipPath4298">
      <rect
         style="opacity:1;fill:#ffffff;fill-opacity:1;stroke:none;stroke-width:1.92294443;stroke-miterlimit:4;stroke-dasharray:none;stroke-opacity:1"
         id="rect4300"
         width="44.945477"
         height="23.246136"
         x="257.60785"
         y="229.3783"
         ry="1.49998"
         rx="1.49998" />
    </clipPath>
  </defs>
  <sodipodi:namedview
     id="base"
     pagecolor="#ffffff"
     bordercolor="#666666"
     borderopacity="1.0"
     inkscape:pageopacity="0.0"
     inkscape:pageshadow="2"
     inkscape:zoom="7.1015625"
     inkscape:cx="65.674714"
     inkscape:cy="21.820247"
     inkscape:document-units="px"
     inkscape:current-layer="svg2"
     showgrid="false"
     inkscape:snap-bbox="true"
     inkscape:bbox-nodes="true"
     showguides="false"
     inkscape:guide-bbox="true"
     inkscape:snap-intersection-paths="false"
     inkscape:object-nodes="false"
     inkscape:object-paths="false"
     inkscape:snap-smooth-nodes="false"
     inkscape:snap-bbox-edge-midpoints="false"
     inkscape:snap-bbox-midpoints="false"
     inkscape:snap-object-midpoints="true"
     inkscape:snap-center="true"
     inkscape:snap-global="true"
     inkscape:window-width="1680"
     inkscape:window-height="1026"
     inkscape:window-x="0"
     inkscape:window-y="24"
     inkscape:window-maximized="1"
     inkscape:snap-nodes="false"
     fit-margin-top="10"
     fit-margin-left="10"
     fit-margin-right="10"
     fit-margin-bottom="10"
     units="px">
    <inkscape:grid
       type="xygrid"
       id="grid4136"
       originx="-245.15039"
       originy="-795.14929" />
    <sodipodi:guide
       position="27.34961,27.350683"
       orientation="0,1"
       id="guide4174" />
    <sodipodi:guide
       position="27.34961,27.350683"
       orientation="1,0"
       id="guide4176" />
    <sodipodi:guide
       position="18.363281,36.021472"
       orientation="1,0"
       id="guide4261" />
    <sodipodi:guide
       position="18.362701,36.038922"
       orientation="0,1"
       id="guide4263" />
    <sodipodi:guide
       position="21.833241,32.541902"
       orientation="0.70451034,0.70969373"
       id="guide4265" />
  </sodipodi:namedview>
  <metadata
     id="metadata7">
    <rdf:RDF>
      <cc:Work
         rdf:about="">
        <dc:format>image/svg+xml</dc:format>
        <dc:type
           rdf:resource="http://purl.org/dc/dcmitype/StillImage" />
        <dc:title />
      </cc:Work>
    </rdf:RDF>
  </metadata>
  <path
     style="opacity:1;fill:#000000;fill-opacity:1;stroke:none;stroke-width:100;stroke-miterlimit:4;stroke-dasharray:none;stroke-opacity:1"
     d="M 27.349609,10 C 17.781379,10 10,17.781379 10,27.349609 c 0,9.56823 7.781379,17.351563 17.349609,17.351563 9.56823,0 17.34961,-7.783333 17.34961,-17.351563 C 44.699219,17.781379 36.917839,10 27.349609,10 Z m 0,2.361328 c 8.29279,0 14.990235,6.695491 14.990235,14.988281 0,8.29279 -6.697445,14.990235 -14.990235,14.990235 -8.29279,0 -14.990234,-6.697445 -14.990234,-14.990235 0,-8.29279 6.697444,-14.988281 14.990234,-14.988281 z m 0,2.488281 c -6.90357,0 -12.5,5.59644 -12.5,12.5 0.005,3.39095 1.387349,6.634388 3.830079,8.986329 -2.2912,-2.232681 -3.565704,-5.952513 -3.027344,-9.351563 0.90779,-5.7317 5.214716,-10.225967 11.785156,-9.841797 0.40546,0.0237 0.789009,0.0799 1.162109,0.150391 l 0,6.05664 3.322266,0 c 2.216,0 4,1.784 4,4 0,2.216 -1.784,4 -4,4 l -3.322266,0 0,3.611329 c 5.15833,0.49743 8.314616,-2.601172 9.572266,-7.419922 0.91706,-3.51382 -0.333642,-8.112587 -4.013672,-10.660157 -0.93437,-0.60434 -1.953389,-1.056598 -3.005859,-1.417968 -0.41348,-0.14197 -0.900853,-0.265076 -1.314453,-0.353516 -0.80368,-0.17186 -1.634972,-0.259766 -2.488282,-0.259766 z m 29.617188,0 c -0.08989,0 -0.18597,0.02343 -0.287109,0.06836 -0.101134,0.03371 -0.19721,0.08492 -0.28711,0.152343 -0.08989,0.06743 -0.166948,0.140091 -0.234375,0.21875 -0.05622,0.07866 -0.09036,0.151324 -0.101562,0.21875 l -9.152344,23.699219 c -0.08991,0.224747 -0.06844,0.393486 0.06641,0.50586 0.146087,0.112373 0.325556,0.167968 0.539063,0.167968 l 4.972656,0 c 0.42702,0 0.713295,-0.207266 0.859375,-0.623047 0.213513,-0.5731 0.427118,-1.141258 0.640625,-1.703124 0.224747,-0.5731 0.444696,-1.145651 0.658203,-1.71875 l 8.951172,0 0.638672,1.71875 c 0.213506,0.561866 0.433456,1.130024 0.658203,1.703124 0.07866,0.224747 0.185466,0.387148 0.320312,0.488282 0.146087,0.0899 0.348962,0.134765 0.607422,0.134765 l 4.837891,0 c 0.303407,0 0.517012,-0.06632 0.640625,-0.201171 0.123633,-0.146087 0.138728,-0.331894 0.04883,-0.556641 L 62.496094,16.300781 62.074219,15.339844 c -0.06742,-0.0899 -0.169841,-0.192314 -0.304688,-0.304688 -0.134846,-0.123606 -0.297248,-0.185547 -0.488281,-0.185547 l -4.314453,0 z m 16.556641,0 c -0.191034,0 -0.353435,0.07901 -0.488282,0.236329 -0.123613,0.146086 -0.185547,0.314826 -0.185547,0.505859 l 0,14.208984 c 0,1.932807 0.286275,3.569017 0.859375,4.90625 0.58434,1.326 1.36611,2.404768 2.34375,3.236328 0.977647,0.82032 2.112011,1.416283 3.404297,1.78711 1.292287,0.359593 2.646607,0.539062 4.0625,0.539062 1.4159,0 2.763875,-0.175084 4.044922,-0.523437 1.292287,-0.359594 2.426657,-0.942873 3.404297,-1.751953 0.97765,-0.82032 1.75307,-1.899088 2.32617,-3.236329 0.58434,-1.337233 0.87696,-2.990511 0.87696,-4.957031 l 0,-14.208984 c -1e-5,-0.191033 -0.0727,-0.359773 -0.21876,-0.505859 -0.14608,-0.157321 -0.34896,-0.236329 -0.60742,-0.236329 l -4.921872,0 c -0.23598,0 -0.426179,0.07462 -0.572266,0.220703 -0.134846,0.146087 -0.203124,0.319212 -0.203124,0.521485 l 0,14.294922 c -10e-7,0.74166 -0.111191,1.397603 -0.335938,1.970703 -0.213507,0.5731 -0.512465,1.057872 -0.894531,1.451172 -0.370834,0.382073 -0.80878,0.672733 -1.314453,0.875 -0.49444,0.191033 -1.022118,0.287109 -1.583985,0.287109 -0.539386,0 -1.062679,-0.08339 -1.568359,-0.251953 -0.49444,-0.16856 -0.932387,-0.433382 -1.314453,-0.792969 -0.370827,-0.370833 -0.67417,-0.842915 -0.910157,-1.416015 -0.224746,-0.58434 -0.335937,-1.291494 -0.335937,-2.123047 l 0,-14.294922 c 0,-0.213513 -0.09608,-0.386638 -0.287109,-0.521485 -0.179794,-0.146079 -0.354878,-0.220703 -0.523438,-0.220703 l -5.05664,0 z m 26.326172,0 c -0.24722,0 -0.43303,0.07462 -0.55664,0.220703 -0.12361,0.134847 -0.18555,0.318701 -0.18555,0.554688 l 0,23.53125 c 0,0.24722 0.0683,0.433027 0.20313,0.556641 0.13484,0.112373 0.31431,0.167968 0.53906,0.167968 l 5.00586,0 c 0.51691,0 0.77539,-0.241402 0.77539,-0.724609 l 0,-7.601562 2.73047,0 4.0957,7.703124 c 0.045,0.191034 0.14102,0.342705 0.28711,0.455079 0.15732,0.112373 0.33045,0.167968 0.52148,0.167968 l 5.78321,0 c 0.20226,0 0.35833,-0.04487 0.4707,-0.134765 0.12361,-0.101134 0.18555,-0.240122 0.18555,-0.419922 0,-0.15732 -0.0619,-0.343134 -0.18555,-0.556641 -0.12361,-0.213506 -0.22407,-0.399314 -0.30273,-0.55664 l -4.33203,-8.158203 c 0.60681,-0.348354 1.16229,-0.764847 1.66796,-1.248047 0.51692,-0.49444 0.96121,-1.039186 1.33204,-1.634766 0.37083,-0.606807 0.6571,-1.252027 0.85937,-1.9375 0.21351,-0.696713 0.32031,-1.427273 0.32031,-2.191406 0,-1.123727 -0.21799,-2.181042 -0.65625,-3.169922 -0.42701,-1.00012 -1.01858,-1.869668 -1.77148,-2.611328 -0.75289,-0.74166 -1.63513,-1.326893 -2.64649,-1.753907 -1.01135,-0.438253 -2.09451,-0.658203 -3.25195,-0.658203 l -10.88867,0 z m -63.830079,3.513672 c 2.2912,2.23268 3.565704,5.954466 3.027344,9.353516 -0.90779,5.7317 -5.214716,10.224014 -11.785156,9.839844 -0.40539,-0.0237 -0.78907,-0.078 -1.16211,-0.148438 l 0,-6.058594 -3.322265,0 c -2.216,0 -4,-1.784 -4,-4 0,-2.216 1.784,-4 4,-4 l 3.322265,0 0,-3.609375 c -0.474,-0.0457 -0.936773,-0.07229 -1.376953,-0.05859 -4.35012,0.13573 -7.053232,3.102565 -8.195312,7.478515 -0.91706,3.51382 0.333642,8.112576 4.013672,10.660156 0.20267,0.13227 0.40892,0.259007 0.61914,0.378907 1.21004,0.69013 2.439365,1.108878 3.703125,1.392578 0.80129,0.17988 1.633678,0.257812 2.486328,0.257812 6.90357,0 12.5,-5.59644 12.5,-12.5 -0.005,-3.39095 -1.387348,-6.634388 -3.830078,-8.986328 z m 69.611329,1.644531 2.32617,0 c 0.32588,10e-7 0.62288,0.01269 0.89258,0.03516 0.28093,0.01127 0.57988,0.02636 0.89453,0.04883 0.38207,0.05619 0.73028,0.18006 1.04492,0.371094 0.31465,0.191033 0.58385,0.428051 0.8086,0.708984 0.22474,0.280933 0.39983,0.588661 0.52343,0.925781 0.12362,0.337114 0.1836,0.674599 0.1836,1.011719 0,0.359593 -0.0556,0.714147 -0.16797,1.0625 -0.11237,0.33712 -0.27478,0.646801 -0.48828,0.927734 -0.21352,0.269694 -0.47833,0.49842 -0.79297,0.689453 -0.31465,0.179814 -0.66725,0.292958 -1.06055,0.337891 -0.19103,0.02247 -0.36611,0.03952 -0.52344,0.05078 -0.15732,0.01127 -0.33678,0.01758 -0.53906,0.01758 l -3.10156,0 0,-6.1875 z m -46.50586,2.714844 2.578125,7.703125 -5.175781,0 c 0.213506,-0.5731 0.427111,-1.18613 0.640625,-1.83789 0.22474,-0.663 0.44469,-1.331626 0.658203,-2.00586 0.213507,-0.67424 0.427118,-1.342866 0.640625,-2.005859 0.224747,-0.663 0.444696,-1.280416 0.658203,-1.853516 z m -36.208984,2.126953 c -1.4018,0 -2.53125,1.12945 -2.53125,2.53125 0,1.40179 1.12945,2.529297 2.53125,2.529297 l 8.882812,0 c 1.4018,-2e-5 2.53125,-1.127507 2.53125,-2.529297 0,-1.4018 -1.12945,-2.53125 -2.53125,-2.53125 l -8.882812,0 z"
     id="path4140"
     inkscape:connector-curvature="0" />
</svg>
