<?xml version="1.0" encoding="UTF-8" standalone="no"?>
<svg
   xmlns:dc="http://purl.org/dc/elements/1.1/"
   xmlns:cc="http://creativecommons.org/ns#"
   xmlns:rdf="http://www.w3.org/1999/02/22-rdf-syntax-ns#"
   xmlns:svg="http://www.w3.org/2000/svg"
   xmlns="http://www.w3.org/2000/svg"
   version="1.1"
   id="svg2"
   viewBox="0 0 24.000001 24.000001"
   height="6.7733335mm"
   width="6.7733335mm">
  <defs
     id="defs4" />
  <metadata
     id="metadata7">
    <rdf:RDF>
      <cc:Work
         rdf:about="">
        <dc:format>image/svg+xml</dc:format>
        <dc:type
           rdf:resource="http://purl.org/dc/dcmitype/StillImage" />
        <dc:title></dc:title>
      </cc:Work>
    </rdf:RDF>
  </metadata>
  <path
     style="color:#000000;font-style:normal;font-variant:normal;font-weight:normal;font-stretch:normal;font-size:medium;line-height:normal;font-family:sans-serif;text-indent:0;text-align:start;text-decoration:none;text-decoration-line:none;text-decoration-style:solid;text-decoration-color:#000000;letter-spacing:normal;word-spacing:normal;text-transform:none;direction:ltr;block-progression:tb;writing-mode:lr-tb;baseline-shift:baseline;text-anchor:start;white-space:normal;clip-rule:nonzero;display:inline;overflow:visible;visibility:visible;opacity:0.2;isolation:auto;mix-blend-mode:normal;color-interpolation:sRGB;color-interpolation-filters:linearRGB;solid-color:#000000;solid-opacity:1;fill:#000000;fill-opacity:1;fill-rule:nonzero;stroke:none;stroke-width:3.00000024;stroke-linecap:butt;stroke-linejoin:miter;stroke-miterlimit:4;stroke-dasharray:none;stroke-dashoffset:0;stroke-opacity:1;color-rendering:auto;image-rendering:auto;shape-rendering:auto;text-rendering:auto;enable-background:accumulate"
     d="M 3.6707058,16.539334 C 5.2848622,19.488921 8.414156,21.5 12,21.5 17.228939,21.5 21.5,17.228939 21.5,12 21.5,6.7710615 17.228939,2.5 12,2.5 8.4647,2.5 5.3738992,4.4571202 3.7382812,7.3378906 4.0089572,6.90472 4.4814395,6.6390407 4.9921875,6.6328125 6.0666648,6.6208073 6.8049539,7.7092446 6.3964844,8.703125 7.5224176,6.7840444 9.6000573,5.5 12,5.5 c 3.607618,0 6.5,2.8923819 6.5,6.5 0,3.607618 -2.892382,6.5 -6.5,6.5 -2.3923577,0 -4.4633954,-1.276565 -5.5917969,-3.185547 0.6713923,1.752973 -1.8348032,2.899998 -2.7226562,1.246094 z"
     id="path4141" />
  <path
     style="color:#000000;font-style:normal;font-variant:normal;font-weight:normal;font-stretch:normal;font-size:medium;line-height:normal;font-family:sans-serif;text-indent:0;text-align:start;text-decoration:none;text-decoration-line:none;text-decoration-style:solid;text-decoration-color:#000000;letter-spacing:normal;word-spacing:normal;text-transform:none;direction:ltr;block-progression:tb;writing-mode:lr-tb;baseline-shift:baseline;text-anchor:start;white-space:normal;clip-rule:nonzero;display:inline;overflow:visible;visibility:visible;opacity:1;isolation:auto;mix-blend-mode:normal;color-interpolation:sRGB;color-interpolation-filters:linearRGB;solid-color:#000000;solid-opacity:1;fill:#ffffff;fill-opacity:1;fill-rule:nonzero;stroke:none;stroke-width:3.00000024;stroke-linecap:round;stroke-linejoin:miter;stroke-miterlimit:4;stroke-dasharray:none;stroke-dashoffset:0;stroke-opacity:1;color-rendering:auto;image-rendering:auto;shape-rendering:auto;text-rendering:auto;enable-background:accumulate"
     d="M 4.9921875,6.6328125 A 1.5001501,1.5001501 0 0 0 3.6855469,7.4296875 C 2.9283477,8.8069708 2.5001745,10.372993 2.5,12 l 0,0.002 c 0.00177,1.623716 0.4308278,3.185094 1.1855469,4.558594 a 1.5001501,1.5001501 0 1 0 2.6289062,-1.44536 C 5.7904719,14.16165 5.5015311,13.097543 5.5,12 l 0,-0.002 C 5.5004559,10.897142 5.7893628,9.8300962 6.3144531,8.875 A 1.5001501,1.5001501 0 0 0 4.9921875,6.6328125 Z"
     id="circle4148" />
</svg>
