<?xml version="1.0" encoding="UTF-8" standalone="no"?>
<!-- Created with Inkscape (http://www.inkscape.org/) -->

<svg
   xmlns:dc="http://purl.org/dc/elements/1.1/"
   xmlns:cc="http://creativecommons.org/ns#"
   xmlns:rdf="http://www.w3.org/1999/02/22-rdf-syntax-ns#"
   xmlns:svg="http://www.w3.org/2000/svg"
   xmlns="http://www.w3.org/2000/svg"
   xmlns:sodipodi="http://sodipodi.sourceforge.net/DTD/sodipodi-0.dtd"
   xmlns:inkscape="http://www.inkscape.org/namespaces/inkscape"
   width="6.7733335mm"
   height="6.7733335mm"
   viewBox="0 0 24.000001 24.000001"
   id="svg2"
   version="1.1"
   inkscape:version="0.91 r"
   sodipodi:docname="spinner2.svg">
  <defs
     id="defs4" />
  <sodipodi:namedview
     id="base"
     pagecolor="#ffffff"
     bordercolor="#666666"
     borderopacity="1.0"
     inkscape:pageopacity="0"
     inkscape:pageshadow="2"
     inkscape:zoom="1"
     inkscape:cx="25.267157"
     inkscape:cy="18.016226"
     inkscape:document-units="px"
     inkscape:current-layer="layer2"
     showgrid="false"
     fit-margin-top="0"
     fit-margin-left="0"
     fit-margin-right="0"
     fit-margin-bottom="0"
     inkscape:snap-bbox="true"
     inkscape:snap-bbox-midpoints="true"
     inkscape:bbox-nodes="true"
     inkscape:window-width="1680"
     inkscape:window-height="1026"
     inkscape:window-x="0"
     inkscape:window-y="24"
     inkscape:window-maximized="1"
     units="px">
    <inkscape:grid
       type="xygrid"
       id="grid4143" />
  </sodipodi:namedview>
  <metadata
     id="metadata7">
    <rdf:RDF>
      <cc:Work
         rdf:about="">
        <dc:format>image/svg+xml</dc:format>
        <dc:type
           rdf:resource="http://purl.org/dc/dcmitype/StillImage" />
        <dc:title></dc:title>
      </cc:Work>
    </rdf:RDF>
  </metadata>
  <g
     inkscape:groupmode="layer"
     id="layer2"
     inkscape:label="Layer 2">
    <path
       style="color:#000000;font-style:normal;font-variant:normal;font-weight:normal;font-stretch:normal;font-size:medium;line-height:normal;font-family:sans-serif;text-indent:0;text-align:start;text-decoration:none;text-decoration-line:none;text-decoration-style:solid;text-decoration-color:#000000;letter-spacing:normal;word-spacing:normal;text-transform:none;direction:ltr;block-progression:tb;writing-mode:lr-tb;baseline-shift:baseline;text-anchor:start;white-space:normal;clip-rule:nonzero;display:inline;overflow:visible;visibility:visible;opacity:1;isolation:auto;mix-blend-mode:normal;color-interpolation:sRGB;color-interpolation-filters:linearRGB;solid-color:#000000;solid-opacity:1;fill:#20bfff;fill-opacity:1;fill-rule:nonzero;stroke:none;stroke-width:3.00000024;stroke-linecap:butt;stroke-linejoin:miter;stroke-miterlimit:4;stroke-dasharray:none;stroke-dashoffset:0;stroke-opacity:1;color-rendering:auto;image-rendering:auto;shape-rendering:auto;text-rendering:auto;enable-background:accumulate"
       d="m 21.5,12 c 0,-3.5353 -1.95712,-6.6261008 -4.837891,-8.2617188 a 1.50015,1.50015 0 0 1 0.705078,1.2539063 1.50015,1.50015 0 0 1 -2.070312,1.4042969 C 17.215956,7.5224176 18.5,9.6000573 18.5,12 18.5,15.607618 15.607618,18.5 12,18.5 8.392382,18.5 5.5,15.607618 5.5,12 5.5,9.6076423 6.776565,7.5366046 8.685547,6.4082031 A 1.50015,1.50015 0 0 1 7.439453,3.6855469 C 8.114368,3.3146906 8.835189,3.0237974 9.585938,2.8222656 5.519848,3.8973706 2.5,7.6059062 2.5,12 c 0,5.228939 4.271061,9.5 9.5,9.5 5.228939,0 9.5,-4.271061 9.5,-9.5 z M 16.662109,3.7382812 c -0.37156,-0.2109609 -0.757951,-0.3965135 -1.158203,-0.5566406 0.365917,0.1466251 0.722086,0.3146065 1.066406,0.5039063 a 1.50015,1.50015 0 0 1 0.0918,0.052734 z M 15.503906,3.1816406 C 15.163944,3.0456335 14.814761,2.9303871 14.457031,2.8339844 c 0.355925,0.096912 0.706319,0.2111934 1.046875,0.3476562 z m -1.21875,-0.390625 C 13.986716,2.7166014 13.683647,2.6565889 13.375,2.6113281 c 0.307158,0.045979 0.611287,0.1042864 0.910156,0.1796875 z M 13.125,2.5722656 C 12.755432,2.5281911 12.381022,2.5 12,2.5 c 0.379096,4.07e-5 0.754141,0.027005 1.125,0.072266 z m -0.230469,2.9941406 c -0.03847,-0.00551 -0.07662,-0.010818 -0.115234,-0.015625 0.0388,0.00458 0.07665,0.010371 0.115234,0.015625 z M 11.992188,2.5 c -0.385812,3.169e-4 -0.764643,0.030684 -1.138672,0.076172 C 11.228422,2.5291734 11.608652,2.5006624 11.992188,2.5 Z M 10.671875,2.6035156 C 10.331615,2.6516591 9.997817,2.7173149 9.669922,2.8007812 9.998539,2.7157801 10.3331,2.6527982 10.671875,2.6035156 Z"
       id="path4141"
       inkscape:connector-curvature="0" />
    <path
       style="color:#000000;font-style:normal;font-variant:normal;font-weight:normal;font-stretch:normal;font-size:medium;line-height:normal;font-family:sans-serif;text-indent:0;text-align:start;text-decoration:none;text-decoration-line:none;text-decoration-style:solid;text-decoration-color:#000000;letter-spacing:normal;word-spacing:normal;text-transform:none;direction:ltr;block-progression:tb;writing-mode:lr-tb;baseline-shift:baseline;text-anchor:start;white-space:normal;clip-rule:nonzero;display:inline;overflow:visible;visibility:visible;opacity:1;isolation:auto;mix-blend-mode:normal;color-interpolation:sRGB;color-interpolation-filters:linearRGB;solid-color:#000000;solid-opacity:1;fill:#ffffff;fill-opacity:1;fill-rule:nonzero;stroke:none;stroke-width:3.00000024;stroke-linecap:round;stroke-linejoin:miter;stroke-miterlimit:4;stroke-dasharray:none;stroke-dashoffset:0;stroke-opacity:1;color-rendering:auto;image-rendering:auto;shape-rendering:auto;text-rendering:auto;enable-background:accumulate"
       d="M 17.367187,4.9921875 A 1.5001501,1.5001501 0 0 0 16.570312,3.6855469 C 15.193029,2.9283477 13.627007,2.5001745 12,2.5 l -0.002,0 C 10.374284,2.50177 8.812906,2.9308278 7.439406,3.6855469 a 1.5001501,1.5001501 0 1 0 1.44536,2.6289062 C 9.83835,5.7904719 10.902457,5.5015311 12,5.5 l 0.002,0 c 1.100858,4.559e-4 2.167904,0.2893628 3.123,0.8144531 a 1.5001501,1.5001501 0 0 0 2.242187,-1.3222656 z"
       id="circle4148"
       inkscape:connector-curvature="0" />
  </g>
</svg>
